# xmcd CD database file
#
# Track frame offsets:
#	150
#	16489
#	31658
#	52614
#	83783
#	104548
#	121558
#	142757
#	157056
#	171222
#	189345
#	208052
#	226088
#	244424
#	269877
#	282247
#	297642
#	311626
#
# Disc length: 4411 seconds
#
# Revision: 0
# Processed by: cddbd v1.5.2PL0 Copyright (c) Steve Scherf et al.
# Submitted via: CDex 1.70beta2
#
DISCID=fb113912
DTITLE=Nina Simone - Songs to Sing The Best of Nina Simone CD1
DYEAR=2010
DGENRE=Jazz
TTITLE0=My Baby Just Cares For Me
TTITLE1=Love Me Or Leave Me
TTITLE2=Ain't Got No, I Got Life
TTITLE3=The House Of The Rising Sun
TTITLE4=Just In Time
TTITLE5=Do What You Gotta Do
TTITLE6=Mississippi Goddam
TTITLE7=Don't Smoke In Bed
TTITLE8=He's Got The Whole World In His Hands
TTITLE9=Mood Indigo
TTITLE10=I Loves You Porgy
TTITLE11=For All We Know
TTITLE12=No Opportunity Necessary, No Experience Needed
TTITLE13=After You've Gone
TTITLE14=I'll Look Around
TTITLE15=I Want A Little Sugar In My Bowl
TTITLE16=Central Park Blues
TTITLE17=When I Was In My Prime
EXTD=YEAR: 2010
EXTT0=
EXTT1=
EXTT2=
EXTT3=
EXTT4=
EXTT5=
EXTT6=
EXTT7=
EXTT8=
EXTT9=
EXTT10=
EXTT11=
EXTT12=
EXTT13=
EXTT14=
EXTT15=
EXTT16=
EXTT17=
PLAYORDER=
